<?xml version='1.0' encoding='utf-8'?>
<svg xmlns="http://www.w3.org/2000/svg" viewBox="0 0 1000 1000">
  <defs>
    <linearGradient id="bggrad" x1="0%" y1="0%" x2="100%" y2="100%">
      <stop offset="0%" stop-color="#ee9ca7" />
      <stop offset="100%" stop-color="#ffdde1" />
    </linearGradient>
  </defs>
  
  <circle cx="500" cy="500" r="500" fill="url(#bggrad)" />
  <rect x="320" y="320" width="360" height="360" rx="40" fill="#ffffff" stroke="none" transform="translate(0,10)" />
    <rect x="400" y="400" width="200" height="200" rx="20" fill="#ffffff" stroke="none" transform="translate(0,10)" />
    <line x1="380" y1="260" x2="380" y2="320" fill="#ffffff" stroke="#ffffff" transform="translate(0,10)" />
      <line x1="500" y1="240" x2="500" y2="320" fill="#ffffff" stroke="#ffffff" transform="translate(0,10)" />
      <line x1="620" y1="260" x2="620" y2="320" fill="#ffffff" stroke="#ffffff" transform="translate(0,10)" />
      <line x1="380" y1="680" x2="380" y2="740" fill="#ffffff" stroke="#ffffff" transform="translate(0,10)" />
      <line x1="500" y1="680" x2="500" y2="760" fill="#ffffff" stroke="#ffffff" transform="translate(0,10)" />
      <line x1="620" y1="680" x2="620" y2="740" fill="#ffffff" stroke="#ffffff" transform="translate(0,10)" />
      <line x1="260" y1="380" x2="320" y2="380" fill="#ffffff" stroke="#ffffff" transform="translate(0,10)" />
      <line x1="240" y1="500" x2="320" y2="500" fill="#ffffff" stroke="#ffffff" transform="translate(0,10)" />
      <line x1="260" y1="620" x2="320" y2="620" fill="#ffffff" stroke="#ffffff" transform="translate(0,10)" />
      <line x1="680" y1="380" x2="740" y2="380" fill="#ffffff" stroke="#ffffff" transform="translate(0,10)" />
      <line x1="680" y1="500" x2="760" y2="500" fill="#ffffff" stroke="#ffffff" transform="translate(0,10)" />
      <line x1="680" y1="620" x2="740" y2="620" fill="#ffffff" stroke="#ffffff" transform="translate(0,10)" />
    </svg>